<svg width="2464" height="682" viewBox="0 0 2464 682" fill="none" xmlns="http://www.w3.org/2000/svg">
<path fill-rule="evenodd" clip-rule="evenodd" d="M768.27 396.721C766.479 407.279 764.184 417.746 761.393 428.085C762.773 422.99 764.026 417.89 765.155 412.787C766.317 407.485 767.357 402.129 768.27 396.721Z" fill="black"/>
<path d="M642.632 340.957C642.632 338.968 642.603 336.985 642.546 335.01M720.028 160.54C720.198 160.806 720.369 161.072 720.539 161.338M610.358 230.947C609.098 228.985 607.81 227.051 606.495 225.146M578.019 37.3114C578.307 37.443 578.594 37.5751 578.881 37.7075M523.767 155.807C521.731 154.875 519.686 153.979 517.635 153.119M410.308 139.355C408.69 139.586 407.08 139.834 405.477 140.101M409.604 542.456C411.346 542.71 413.086 542.941 414.824 543.15M522.798 526.548C527.48 524.434 532.043 522.164 536.484 519.749M609.781 451.863C610.694 450.456 611.588 449.042 612.463 447.621M642.546 335.01C642.378 329.291 641.97 323.581 641.324 317.897M642.546 335.01C642.037 317.246 639.252 300.052 634.474 283.709M641.324 317.897C641.109 316.022 640.868 314.144 640.601 312.264C640.335 310.399 640.045 308.543 639.731 306.697M641.324 317.897C640.641 311.889 639.691 305.909 638.477 299.976M639.731 306.697C638.727 300.826 637.468 294.999 635.957 289.237M639.731 306.697C639.224 303.719 638.655 300.766 638.024 297.84M635.957 289.237C635.51 287.538 635.04 285.841 634.547 284.144C633.211 279.544 631.726 275.028 630.101 270.598M635.957 289.237C636.711 292.102 637.399 294.971 638.024 297.84M630.101 270.598C628.809 267.102 627.415 263.621 625.918 260.16M630.101 270.598C635.205 284.418 638.71 298.487 640.7 312.587M625.918 260.16C631.27 272.552 635.391 285.46 638.208 298.684M625.918 260.16C625.485 259.158 625.042 258.158 624.591 257.159L624.64 257.137M638.208 298.684C637.296 294.37 636.244 290.081 635.051 285.825M638.208 298.684C638.299 299.114 638.389 299.545 638.477 299.976M635.051 285.825C636.157 289.777 637.149 293.783 638.024 297.84M635.051 285.825C633.585 280.586 631.919 275.442 630.063 270.401M638.024 297.84C638.179 298.552 638.33 299.264 638.477 299.976M638.477 299.976C641.371 313.986 642.739 328.008 642.684 341.856M606.495 225.146C603.361 220.615 600.045 216.212 596.555 211.948C595.44 210.588 594.305 209.238 593.149 207.898C592.372 206.999 591.589 206.108 590.801 205.225M606.495 225.146C596.555 210.751 585.061 198.017 572.387 187.024M590.801 205.225C585.877 199.722 580.659 194.489 575.171 189.55M590.801 205.225C581.878 195.239 572.183 186.336 561.884 178.529M575.171 189.55C574.408 188.864 573.639 188.183 572.863 187.506C571.584 186.391 570.296 185.295 568.998 184.217C564.084 180.144 558.981 176.302 553.708 172.705M575.171 189.55C589.352 202.297 601.332 216.6 611.079 231.975M553.708 172.705C552.453 171.85 551.186 171.007 549.906 170.176L549.936 170.131M553.708 172.705C568.785 182.974 582.06 194.932 593.445 208.161M517.635 153.119C512.265 150.872 506.8 148.854 501.257 147.072C499.792 146.603 498.318 146.148 496.835 145.709C496.037 145.472 495.238 145.241 494.439 145.015M517.635 153.119C505.977 148.23 494.103 144.509 482.149 141.906M494.439 145.015C486.777 142.85 478.994 141.133 471.132 139.874M494.439 145.015C481.045 141.221 467.575 138.863 454.197 137.849M471.132 139.874C470.222 139.729 469.31 139.59 468.396 139.456C466.683 139.207 464.973 138.979 463.265 138.773C457.473 138.08 451.653 137.634 445.822 137.437M471.132 139.874C490.195 142.915 508.228 148.52 524.93 156.284M445.822 137.437C443.557 137.362 441.283 137.325 438.999 137.325V137.27M445.822 137.437C458.245 137.846 470.386 139.368 482.149 141.906M405.477 140.101C399.196 141.151 392.967 142.493 386.812 144.123M405.477 140.101C402.278 140.633 399.109 141.238 395.97 141.913M386.812 144.123C385.27 144.533 383.729 144.961 382.188 145.409C377.607 146.74 373.109 148.218 368.697 149.836M386.812 144.123C389.862 143.313 392.915 142.577 395.97 141.913M368.697 149.836C365.396 151.053 362.11 152.362 358.841 153.764M368.697 149.836C354.521 155.034 341.235 161.679 328.959 169.553M368.697 149.836C382.451 144.76 396.453 141.267 410.486 139.276M358.841 153.764C371.057 148.537 383.77 144.504 396.79 141.735M358.841 153.764C357.626 154.285 356.413 154.818 355.202 155.365C353.444 156.159 351.703 156.975 349.978 157.812C344.733 160.363 339.598 163.138 334.59 166.127M396.79 141.735C392.67 142.604 388.574 143.602 384.508 144.727M396.79 141.735C397.194 141.649 397.599 141.565 398.004 141.482C397.326 141.622 396.648 141.766 395.97 141.913M384.508 144.727C388.28 143.684 392.102 142.745 395.97 141.913M384.508 144.727C370.396 148.631 356.643 154.073 343.522 161.032M384.508 144.727C374.178 147.581 364.217 151.211 354.681 155.543M334.59 166.127C332.711 167.25 330.844 168.408 328.989 169.599L328.959 169.553M334.59 166.127C349.771 157.049 365.691 150.174 381.966 145.42M288.65 203.619C287.606 204.762 286.573 205.92 285.55 207.093C282.399 210.705 279.398 214.397 276.547 218.161M276.547 218.161C274.751 220.542 272.999 222.972 271.293 225.452C270.179 227.069 269.088 228.701 268.021 230.35C263.628 237.148 259.641 244.2 256.083 251.468C255.321 253.028 254.576 254.601 253.849 256.189L253.801 256.167L166.829 216.348C175.844 196.657 186.726 178.413 199.17 161.727L245.357 195.191C252.002 186.346 259.19 178.047 266.852 170.319L203.345 104.326M276.547 218.161C276.868 217.735 277.191 217.31 277.516 216.887C286.111 205.674 295.69 195.579 306.049 186.645L220.179 88.6768M414.824 543.15C418.178 543.553 421.524 543.871 424.86 544.107M414.824 543.15C421.594 543.957 428.402 544.427 435.219 544.556M424.86 544.107C428.29 544.342 431.744 544.492 435.219 544.556M424.86 544.107C430.697 544.509 436.544 544.661 442.386 544.562M424.86 544.107C434.343 544.777 443.742 544.778 453.005 544.149M435.219 544.556C436.476 544.578 437.736 544.59 438.999 544.59C440.13 544.59 441.259 544.581 442.386 544.562M442.386 544.562C445.912 544.505 449.417 544.358 452.898 544.123M442.386 544.562C449.088 544.449 455.781 544.006 462.44 543.237M452.898 544.123C456.07 543.903 459.251 543.608 462.44 543.237M452.898 544.123C438.007 545.157 423.329 544.545 409.058 542.43M452.898 544.123C462.617 543.468 472.15 542.131 481.448 540.159M462.44 543.237C464.188 543.033 465.939 542.807 467.692 542.557C469.376 542.318 471.052 542.058 472.721 541.779C478.577 540.794 484.388 539.555 490.136 538.065M490.136 538.065C492.029 537.573 493.921 537.052 495.812 536.503L495.827 536.556M490.136 538.065C477.761 541.282 465.341 543.287 453.005 544.149M536.484 519.749C539.531 518.084 542.551 516.333 545.542 514.495M536.484 519.749C535.95 520.041 535.415 520.33 534.879 520.617M536.484 519.749C549.277 512.792 561.056 504.62 571.743 495.446M545.542 514.495C538.029 519.104 530.223 523.225 522.178 526.83C526.479 524.907 530.716 522.835 534.879 520.617M545.542 514.495C546.702 513.782 547.858 513.056 549.01 512.317C550.133 511.596 551.246 510.865 552.35 510.126M545.542 514.495C553.585 509.561 561.293 504.067 568.601 498.049M534.879 520.617C540.879 517.409 546.71 513.908 552.35 510.126M534.879 520.617C552.071 511.458 568.017 499.81 582.114 485.894M552.35 510.126C557.773 506.49 563.02 502.597 568.071 498.46M552.35 510.126C555.151 508.251 557.89 506.319 560.568 504.33M568.071 498.46C569.41 497.362 570.739 496.243 572.058 495.105C575.717 491.947 579.236 488.686 582.615 485.332M568.071 498.46C572.626 494.73 577.021 490.801 581.244 486.686M568.071 498.46C565.603 500.484 563.101 502.441 560.568 504.33M582.615 485.332C584.756 483.198 586.86 481.007 588.923 478.759M582.615 485.332C582.159 485.786 581.702 486.237 581.244 486.686M588.923 478.759C580.815 487.576 571.939 495.676 562.401 502.953M588.923 478.759C590.112 477.465 591.288 476.151 592.45 474.819L592.49 474.854M562.401 502.953C564.507 501.352 566.574 499.717 568.601 498.049M562.401 502.953C561.793 503.415 561.182 503.874 560.568 504.33M562.401 502.953C550.164 512.289 536.839 520.272 522.648 526.674M568.601 498.049C569.868 497.005 571.124 495.946 572.367 494.871M568.601 498.049C569.595 497.231 570.58 496.405 571.555 495.571M568.601 498.049C569.593 497.232 570.578 496.407 571.555 495.571M572.367 494.871C572.965 494.351 573.561 493.828 574.154 493.3M572.367 494.871C572.209 495.008 572.051 495.145 571.893 495.281M572.367 494.871C579.608 488.612 586.322 481.919 592.49 474.854M574.154 493.3C573.294 494.064 572.428 494.821 571.555 495.571M574.154 493.3C576.558 491.161 578.922 488.957 581.244 486.686M574.154 493.3C573.405 493.966 572.652 494.627 571.893 495.281M571.555 495.571C571.668 495.475 571.78 495.378 571.893 495.281M571.555 495.571C564.131 501.948 556.225 507.812 547.885 513.095M571.555 495.571C564.02 502.047 556.106 507.89 547.885 513.095M560.568 504.33C548.562 513.283 535.841 520.725 522.648 526.674M612.463 447.621C615.836 442.132 618.948 436.487 621.789 430.705C622.595 429.061 623.382 427.401 624.149 425.726C624.9 424.087 625.627 422.443 626.33 420.794M612.463 447.621C619.363 436.411 625.049 424.779 629.551 412.885M626.33 420.794C628.702 415.224 630.827 409.551 632.697 403.793M626.33 420.794C633.371 404.296 638.065 387.356 640.552 370.359M632.697 403.793C633.233 402.137 633.75 400.469 634.247 398.791C635.628 394.13 636.833 389.46 637.869 384.786M632.697 403.793C633.188 402.28 633.661 400.761 634.117 399.237M632.697 403.793C627.056 421.208 619.271 437.363 609.722 452.05M637.869 384.786C638.601 381.447 639.253 378.073 639.824 374.665M637.869 384.786C637.728 385.428 637.584 386.069 637.437 386.709M639.824 374.665C638.429 382.963 636.523 391.171 634.117 399.237M639.824 374.665C640.064 373.233 640.289 371.795 640.5 370.352L640.552 370.359M634.117 399.237C635.355 395.1 636.463 390.921 637.437 386.709M637.437 386.709C635.373 395.705 632.729 404.442 629.551 412.885M368.531 14.5185L386.321 104.362C375.699 106.726 365.166 109.827 354.796 113.68L334.007 60.5681C314.522 67.8864 295.508 77.3605 277.284 89.06L328.959 169.553M368.531 14.5185C363.586 15.586 358.665 16.7651 353.772 18.055C351.123 18.7556 348.475 19.49 345.829 20.2587C343.521 20.9294 341.225 21.6227 338.942 22.3385C328.498 25.6219 318.22 29.4143 308.147 33.7009C305.95 34.6374 303.758 35.5992 301.572 36.5865C298.758 37.857 295.97 39.1616 293.209 40.4996C284.309 44.8215 275.602 49.535 267.118 54.6251M368.531 14.5185L368.514 14.4308C333.585 21.9652 299.331 35.2639 267.118 54.6251M267.118 54.6251C264.256 56.3451 261.411 58.113 258.582 59.9289C255.927 61.6331 253.305 63.3686 250.715 65.1346M250.715 65.1346C242.691 70.6151 234.908 76.4417 227.388 82.5969C225.17 84.4154 222.969 86.2671 220.785 88.1521C220.583 88.3268 220.381 88.5017 220.179 88.6768M250.715 65.1346C239.965 72.4649 229.773 80.3205 220.151 88.6449L220.179 88.6768M328.959 169.553C333.714 166.497 338.573 163.657 343.522 161.032M203.345 104.326L203.282 104.261C177.646 129.783 155.783 159.905 139.054 194.118M203.345 104.326C199.666 107.989 196.073 111.738 192.567 115.569C190.808 117.494 189.066 119.445 187.342 121.421C185.366 123.685 183.427 125.969 181.524 128.271C175.263 135.854 169.339 143.709 163.767 151.811C162.125 154.203 160.509 156.623 158.92 159.07C157.257 161.631 155.633 164.207 154.049 166.795C148.631 175.666 143.627 184.784 139.054 194.118M139.054 194.118C137.791 196.701 136.557 199.308 135.353 201.937C134.271 204.3 133.22 206.669 132.198 209.043M132.198 209.043C128.188 218.376 124.603 227.888 121.454 237.546C120.533 240.379 119.647 243.233 118.795 246.107C118.719 246.363 118.644 246.62 118.568 246.876M132.198 209.043C126.828 221.515 122.279 234.143 118.527 246.864L118.568 246.876M118.568 246.876L243.755 282.927C238.696 299.973 235.809 317.953 235.413 336.547C235.382 338.013 235.367 339.483 235.367 340.957C235.367 342.279 235.379 343.597 235.404 344.913C235.534 351.508 235.983 358.095 236.749 364.647C236.944 366.312 237.161 367.979 237.399 369.648L237.346 369.656L142.646 383.134C139.595 361.694 138.896 340.461 140.353 319.698L197.299 322.906C198.112 311.873 199.677 301.005 201.95 290.363L112.856 269.138M112.856 269.138L112.768 269.117C106.024 299.721 103.527 331.698 105.845 364.295M112.856 269.138C111.783 274.009 110.819 278.903 109.965 283.817C109.452 286.779 108.977 289.755 108.541 292.747C108.124 295.602 107.745 298.453 107.403 301.3C106.144 311.852 105.387 322.458 105.133 333.082C105.072 335.7 105.042 338.325 105.042 340.957C105.042 343.351 105.067 345.738 105.117 348.119M105.117 348.119C105.231 353.544 105.475 358.937 105.845 364.295M105.117 348.119C105.346 358.642 106.069 369.149 107.284 379.603M105.845 364.295C106.206 369.384 106.685 374.487 107.284 379.603M107.284 379.603C107.611 382.402 107.975 385.205 108.374 388.011C108.726 390.484 109.104 392.946 109.508 395.397M109.508 395.397C111.186 405.534 113.328 415.589 115.927 425.529C116.679 428.397 117.471 431.263 118.303 434.127C118.377 434.383 118.452 434.64 118.527 434.896M109.508 395.397C111.733 408.898 114.743 422.081 118.485 434.908L118.527 434.896M118.527 434.896L243.348 397.602C245.382 404.641 247.786 411.523 250.538 418.226M125.747 456.717L212.187 426.445C216.025 436.628 220.578 446.619 225.855 456.343L176.201 484.408C186.192 502.668 198.251 520.157 212.401 536.551L284.811 474.049L284.851 474.014C283.724 472.708 282.616 471.391 281.527 470.065C270.225 456.294 261.025 441.458 253.898 425.956M125.747 456.717L125.662 456.747C138.21 490.717 156.521 523.167 180.704 552.645M125.747 456.717C127.332 461.008 129.006 465.267 130.766 469.491C132.008 472.464 133.296 475.429 134.63 478.385C135.753 480.871 136.902 483.337 138.078 485.783C143.072 496.152 148.597 506.259 154.628 516.062C155.724 517.839 156.838 519.61 157.971 521.375C159.112 523.153 160.267 524.916 161.436 526.665C167.438 535.629 173.868 544.3 180.704 552.645M253.898 425.956C252.722 423.397 251.601 420.82 250.538 418.226M253.898 425.956C252.726 423.408 251.606 420.83 250.538 418.226M180.704 552.645C182.502 554.837 184.333 557.012 186.196 559.171C188.485 561.823 190.807 564.43 193.16 566.993M193.16 566.993C199.234 573.595 205.569 579.951 212.151 586.046C214.549 588.263 216.987 590.453 219.465 592.614C219.666 592.79 219.867 592.965 220.068 593.14M193.16 566.993C201.721 576.314 210.699 585.042 220.04 593.172L220.068 593.14M220.068 593.14L304.959 494.323C311.342 499.908 318.029 505.048 324.971 509.733M237.933 607.602L294.32 535.429C303.05 541.925 312.28 547.873 321.973 553.205L295.351 603.646C313.623 613.615 333.219 621.818 353.983 627.969L381.15 536.256C372.524 533.705 364.137 530.597 356.03 526.976C355.508 526.744 354.988 526.509 354.469 526.273C353.428 525.797 352.39 525.313 351.355 524.819C343.359 521.012 335.571 516.662 328.048 511.77M237.933 607.602L237.878 607.672C266.546 629.297 299.176 646.602 335.091 658.339M237.933 607.602C241.889 610.584 245.911 613.48 249.995 616.285C252.341 617.894 254.714 619.478 257.114 621.037C259.451 622.554 261.8 624.039 264.16 625.491C273.893 631.467 283.926 636.945 294.217 641.9C296.125 642.817 298.046 643.719 299.979 644.604C301.871 645.47 303.767 646.317 305.667 647.145C315.294 651.334 325.114 655.07 335.091 658.339M328.048 511.77C327.015 511.1 325.989 510.421 324.971 509.733M328.048 511.77C327.017 511.101 325.991 510.422 324.971 509.733M335.091 658.339C338.088 659.319 341.108 660.259 344.151 661.161C347.764 662.231 351.381 663.237 355.001 664.18M355.001 664.18C363.428 666.368 371.938 668.228 380.51 669.755C383.917 670.359 387.344 670.913 390.791 671.416C390.863 671.426 390.935 671.437 391.007 671.447M355.001 664.18C366.988 667.303 379.002 669.731 391.001 671.489L391.007 671.447M391.007 671.447L409.058 542.43M409.058 542.43C408.86 542.401 408.662 542.371 408.464 542.341M409.058 542.43L409.062 542.401C418.924 543.88 428.769 544.614 438.532 544.641M409.058 542.43C416.155 543.488 423.264 544.162 430.354 544.46M413.853 673.965L422.312 582.769C433.168 583.52 444.148 583.538 455.186 582.789L460.033 639.618C480.795 638.136 501.717 634.452 522.513 628.41L495.827 536.556M413.853 673.965L413.844 674.055C449.673 676.766 486.504 673.695 523.089 664.156M413.853 673.965C419.803 674.415 425.766 674.705 431.733 674.837C434.149 674.889 436.571 674.915 438.999 674.915C441.211 674.915 443.417 674.893 445.619 674.85C456.23 674.637 466.826 673.921 477.369 672.704C480.26 672.369 483.156 671.995 486.055 671.582C488.806 671.19 491.545 670.766 494.27 670.31C503.962 668.681 513.578 666.628 523.089 664.156M495.827 536.556C487.192 539.068 478.458 540.984 469.682 542.317M495.827 536.556C494.328 536.99 492.821 537.408 491.308 537.809M469.682 542.317C469.144 542.399 468.606 542.479 468.069 542.557M469.682 542.317C473.608 541.716 477.532 540.998 481.448 540.159M469.682 542.317C477.007 541.203 484.225 539.695 491.308 537.809M468.069 542.557C475.948 541.424 483.705 539.833 491.308 537.809M468.069 542.557C459.095 543.855 450.107 544.539 441.16 544.629M468.069 542.557C466.853 542.731 465.635 542.895 464.413 543.048M491.308 537.809C488.052 538.672 484.765 539.456 481.448 540.159M441.16 544.629C440.283 544.639 439.407 544.643 438.532 544.641M441.16 544.629C445.097 544.585 449.046 544.426 453.005 544.149M438.532 544.641C447.24 544.665 455.883 544.125 464.413 543.048M438.532 544.641C435.799 544.636 433.072 544.575 430.354 544.46M438.532 544.641C435.809 544.636 433.083 544.575 430.354 544.46M464.413 543.048C460.636 543.521 456.832 543.889 453.005 544.149M523.089 664.156C526.119 663.366 529.146 662.532 532.171 661.653C535.497 660.687 538.796 659.674 542.067 658.614M542.067 658.614C550.848 655.763 559.508 652.55 568.023 648.986M542.067 658.614C554.147 654.702 565.859 650.16 577.175 645.035L577.16 645M568.023 648.986C570.833 647.807 573.635 646.588 576.428 645.326C576.671 645.216 576.915 645.106 577.157 644.996M568.023 648.986C571.088 647.703 574.133 646.374 577.16 645M577.157 644.996L522.648 526.674M577.157 644.996L577.16 645M522.648 526.674L522.636 526.648C531.454 522.69 539.881 518.152 547.885 513.095M522.648 526.674C528.793 523.909 534.763 520.854 540.542 517.528M597.743 634.773L555.594 553.46C565.135 548.227 574.385 542.311 583.268 535.717L618.049 580.921C634.719 568.457 650.335 554.054 664.571 537.735L592.49 474.854M597.743 634.773L597.749 634.785L597.751 634.787M597.743 634.773C602.908 631.982 607.999 629.056 613.012 625.998M592.49 474.854C589.157 478.678 585.695 482.359 582.114 485.894M582.114 485.894C578.782 489.186 575.324 492.372 571.743 495.446M571.743 495.446C567.713 498.912 563.564 502.203 559.31 505.316C555.605 508.028 551.796 510.623 547.885 513.095M547.885 513.095C545.463 514.628 543.015 516.106 540.542 517.528M547.885 513.095C545.474 514.622 543.025 516.099 540.542 517.528M596.184 635.63C596.707 635.351 597.229 635.07 597.751 634.787M597.751 634.787L597.785 634.853C629.67 617.632 659.235 594.912 685.024 566.79M597.751 634.787C602.885 632.006 607.974 629.077 613.012 625.998M685.024 566.79C678.357 574.05 671.372 581.014 664.092 587.66C661.834 589.718 659.542 591.752 657.214 593.76C655.062 595.618 652.894 597.443 650.708 599.236C642.599 605.88 634.181 612.141 625.486 617.998C623.482 619.345 621.459 620.675 619.416 621.986C617.291 623.351 615.156 624.688 613.012 625.998M685.024 566.79C686.923 564.72 688.801 562.62 690.658 560.492C692.554 558.318 694.418 556.126 696.248 553.917M696.248 553.917C702.838 545.952 709.058 537.685 714.886 529.146C716.304 527.066 717.702 524.965 719.08 522.843C719.226 522.619 719.371 522.395 719.515 522.171M696.248 553.917C704.725 543.687 712.492 533.092 719.551 522.194L719.515 522.171M719.515 522.171L609.722 452.05M609.722 452.05L609.699 452.035C615.178 443.637 619.967 434.942 624.07 426.025M609.722 452.05C612.951 447.094 615.944 442.023 618.702 436.852C620.593 433.309 622.384 429.699 624.07 426.025M731.597 501.936L652.12 456.42C657.305 446.852 661.875 436.869 665.77 426.514L719.493 445.67C726.754 426.163 732.078 405.597 735.204 384.168L640.552 370.359M731.597 501.936L731.675 501.981C746.761 474.572 758.172 444.653 765.155 412.787M731.597 501.936C734.11 497.369 736.516 492.743 738.814 488.063C740.123 485.393 741.4 482.698 742.645 479.977C743.833 477.383 744.985 474.782 746.1 472.174C750.03 462.971 753.547 453.596 756.639 444.079C757.527 441.34 758.383 438.582 759.205 435.805C759.967 433.233 760.696 430.66 761.393 428.085M640.552 370.359C639.92 374.704 639.149 379.011 638.243 383.275C637.086 388.727 635.699 394.152 634.08 399.536M634.08 399.536C631.716 407.421 628.886 415.105 625.624 422.557M634.08 399.536C633.781 400.532 633.473 401.526 633.158 402.519M625.624 422.557C625.116 423.719 624.598 424.875 624.07 426.025M625.624 422.557C627.011 419.378 628.321 416.154 629.551 412.885M624.07 426.025C627.608 418.338 630.636 410.486 633.158 402.519M633.158 402.519C632.054 405.994 630.852 409.451 629.551 412.885M761.393 428.085C762.773 422.99 764.026 417.89 765.155 412.787M761.393 428.085C764.184 417.746 766.479 407.279 768.27 396.721M765.155 412.787C766.317 407.485 767.357 402.129 768.27 396.721M768.27 396.721C768.694 394.213 769.09 391.695 769.459 389.165C769.872 386.338 770.247 383.515 770.587 380.695M770.587 380.695C771.778 370.727 772.523 360.709 772.818 350.675C772.907 347.568 772.953 344.45 772.956 341.322M770.587 380.695C772.177 367.475 772.969 354.334 773 341.321L772.956 341.322M772.956 341.322L642.684 341.856M772.956 341.322C772.956 341.2 772.956 341.079 772.956 340.957L772.956 341.322ZM642.684 341.856L642.656 341.856C642.712 331.96 642.045 322.184 640.7 312.587M642.684 341.856C642.71 336.368 642.513 330.906 642.099 325.482C641.772 321.185 641.307 316.885 640.7 312.587M772.23 318.932L680.752 323.406C679.965 312.552 678.437 301.679 676.14 290.858L731.719 278.051C727.326 257.705 720.731 237.511 711.819 217.774L624.64 257.137M772.23 318.932L772.321 318.927C769.897 282.175 761.31 245.238 746.018 209.547M772.23 318.932C771.876 313.583 771.395 308.243 770.786 302.916C770.44 299.915 770.053 296.91 769.625 293.901C769.208 290.972 768.754 288.057 768.264 285.156C766.611 275.416 764.529 265.752 762.024 256.195C761.287 253.39 760.511 250.586 759.697 247.785C759.039 245.518 758.358 243.263 757.656 241.021C754.303 230.343 750.419 219.837 746.018 209.547M624.64 257.137C628.261 265.148 631.331 273.333 633.854 281.638M624.64 257.137C625.097 258.15 625.545 259.169 625.987 260.192M633.854 281.638C634.065 282.328 634.271 283.018 634.474 283.709M633.854 281.638C632.705 277.871 631.442 274.123 630.063 270.401M633.854 281.638C631.625 274.306 628.995 267.148 625.987 260.192M634.474 283.709C632.118 275.652 629.278 267.802 625.987 260.192M634.474 283.709C635.501 287.211 636.43 290.729 637.262 294.26C638.683 300.284 639.832 306.398 640.7 312.587M625.987 260.192C627.432 263.545 628.792 266.949 630.063 270.401M746.018 209.547C745.156 207.537 744.274 205.53 743.37 203.528C742.071 200.651 740.736 197.802 739.367 194.98M739.367 194.98C735.218 186.449 730.709 178.097 725.854 169.948C724.131 167.062 722.359 164.191 720.539 161.338M739.367 194.98C733.686 183.276 727.404 172.047 720.576 161.314L720.539 161.338M720.539 161.338L611.079 231.975M611.079 231.975L611.055 231.991C605.717 223.537 599.823 215.585 593.445 208.161M611.079 231.975C608.045 227.18 604.824 222.536 601.43 218.052C598.881 214.684 596.219 211.385 593.445 208.161M707.518 142.398L632.956 195.583C626.43 186.875 619.27 178.551 611.49 170.685L651.342 129.882C636.654 115.135 620.195 101.704 602.032 89.9088L549.936 170.131M707.518 142.398L707.592 142.345C685.919 113.027 659.066 86.8187 627.341 65.1732M707.518 142.398C704.248 137.976 700.869 133.634 697.385 129.377C695.559 127.148 693.698 124.936 691.804 122.742C690.261 120.954 688.703 119.187 687.131 117.44C679.588 109.072 671.628 101.088 663.284 93.5198C661.718 92.1009 660.135 90.6936 658.535 89.2982C656.384 87.4217 654.216 85.5777 652.031 83.7661C644.091 77.1932 635.851 70.9885 627.341 65.1732M549.936 170.131C557.524 175.054 564.721 180.448 571.499 186.26M549.936 170.131C551.064 170.864 552.186 171.611 553.302 172.368M571.499 186.26C571.796 186.514 572.092 186.769 572.387 187.024M571.499 186.26C568.386 183.596 565.18 181.017 561.884 178.529M571.499 186.26C565.668 181.261 559.59 176.627 553.302 172.368M572.387 187.024C566.285 181.732 559.91 176.844 553.302 172.368M572.387 187.024C575.065 189.343 577.674 191.724 580.212 194.166C584.82 198.596 589.238 203.264 593.445 208.161M553.302 172.368C556.206 174.34 559.068 176.393 561.884 178.529M627.341 65.1732C625.211 63.7201 623.06 62.2876 620.886 60.8761C618.287 59.1885 615.674 57.5416 613.047 55.9353M613.047 55.9353C604.889 50.9569 596.521 46.3283 587.969 42.0633C584.972 40.5715 581.942 39.1192 578.881 37.7075M613.047 55.9353C601.897 49.1187 590.495 43.0334 578.9 37.667L578.881 37.7075M578.881 37.7075L524.93 156.284M524.93 156.284L524.919 156.309C516.196 152.237 507.292 148.834 498.271 146.086M524.93 156.284C518.083 153.093 511.102 150.309 504.024 147.927M438.999 137.27V41.6175C460.655 41.6175 481.774 43.9172 502.125 48.2858L490.925 104.211C501.734 106.571 512.272 109.652 522.488 113.401L556.055 28.1855M438.999 137.27C439.189 137.27 439.379 137.27 439.57 137.271M439.57 137.271C448.345 137.292 457.051 137.884 465.64 139.022M439.57 137.271C441.454 137.277 443.342 137.31 445.232 137.369M465.64 139.022C465.804 139.043 465.968 139.065 466.132 139.087M465.64 139.022C461.852 138.524 458.037 138.132 454.197 137.849M465.64 139.022C458.835 138.122 452.025 137.574 445.232 137.369M466.132 139.087C459.163 138.148 452.188 137.579 445.232 137.369M466.132 139.087C475.728 140.372 485.148 142.335 494.332 144.933M466.132 139.087C467.461 139.266 468.791 139.459 470.119 139.665M466.132 139.087C467.464 139.267 468.793 139.459 470.119 139.665M445.232 137.369C448.215 137.462 451.204 137.622 454.197 137.849M494.332 144.933C495.651 145.304 496.964 145.688 498.271 146.086M494.332 144.933C490.32 143.802 486.258 142.792 482.149 141.906M498.271 146.086C488.986 143.257 479.578 141.121 470.119 139.665M498.271 146.086C500.201 146.672 502.119 147.286 504.024 147.927M498.271 146.086C500.195 146.67 502.113 147.285 504.024 147.927M470.119 139.665C474.135 140.288 478.147 141.034 482.149 141.906M470.119 139.665C474.159 140.292 478.171 141.039 482.149 141.906M556.055 28.1855L556.088 28.1024C522.69 15.5975 486.756 8.28712 449.268 7.15488M556.055 28.1855C551.26 26.3908 546.424 24.7057 541.551 23.1317C539 22.3099 536.433 21.5162 533.849 20.7509C531.909 20.1763 529.968 19.6202 528.027 19.0824C516.586 15.9222 504.985 13.3701 493.274 11.4375C491.26 11.1064 489.238 10.7927 487.209 10.4967C484.387 10.0851 481.568 9.71 478.753 9.37113C468.962 8.20015 459.124 7.46064 449.268 7.15488M449.268 7.15488C445.858 7.05187 442.435 7 438.999 7C435.788 7 432.588 7.04531 429.399 7.13532C419.827 7.41293 410.27 8.09966 400.757 9.19359C397.823 9.53321 394.886 9.9121 391.945 10.3307C391.68 10.3683 391.416 10.4062 391.152 10.4444L410.486 139.276M410.486 139.276C410.613 139.258 410.739 139.241 410.866 139.223M410.486 139.276L410.491 139.305C400.744 140.67 391.219 142.725 381.966 145.42M410.486 139.276C404.125 140.173 397.842 141.368 391.655 142.848C388.413 143.623 385.183 144.48 381.966 145.42M343.522 161.032C347.172 159.095 350.893 157.263 354.681 155.543M354.681 155.543C360.057 153.095 365.513 150.896 371.031 148.944C374.631 147.67 378.277 146.494 381.966 145.42" stroke="black" stroke-width="13"/>
<path fill-rule="evenodd" clip-rule="evenodd" d="M450.008 267.935C456.901 268.295 463.766 268.996 470.596 270.04C472.482 265.507 475.273 259.964 477.715 255.64C477.9 255.322 478.26 255.157 478.62 255.212C498.375 258.615 517.28 264.574 534.92 272.674C535.073 272.74 535.203 272.85 535.29 272.992C571.149 326.564 580.972 378.819 576.153 430.425C576.131 430.678 575.989 430.919 575.793 431.073C552.135 448.447 529.218 458.994 506.726 465.986L460.009 479.497V440.34L484.867 399.002C498.495 399.002 509.724 386.49 509.724 371.125C509.724 355.759 498.713 343.247 484.867 343.247C470.912 343.247 459.791 355.869 460.009 371.125L461.086 412.033L438.913 432.364L418.894 412.033L417.817 371.125C418.035 355.869 406.914 343.247 392.96 343.247C379.114 343.247 368.102 355.759 368.102 371.125C368.102 386.49 379.331 399.002 392.96 399.002L417.817 440.34V479.497L371.1 465.986C348.609 458.994 325.692 448.447 302.033 431.073C301.837 430.919 301.695 430.678 301.674 430.425C296.855 378.819 306.678 326.564 342.536 272.992C342.623 272.85 342.754 272.74 342.906 272.674C360.547 264.574 379.451 258.615 399.206 255.212C399.566 255.157 399.926 255.322 400.111 255.64C402.554 259.964 405.344 265.507 407.231 270.04C414.127 268.986 421.06 268.281 428.02 267.925L439.016 300.18L450.008 267.935Z" fill="black"/>
<path d="M439.016 287.16L403.507 183H474.525L439.016 287.16Z" fill="black"/>
<path d="M1111.2 449.2V484H908V204H1105.6V238.8H948V324.8H1088.4V358.8H948V449.2H1111.2ZM1354.37 414H1205.57L1174.77 484H1133.57L1260.37 204H1299.97L1427.17 484H1385.17L1354.37 414ZM1340.37 382L1279.97 244.8L1219.57 382H1340.37ZM1753.43 509.6C1744.36 520.267 1733.83 528.4 1721.83 534C1709.83 539.6 1696.9 542.4 1683.03 542.4C1665.43 542.4 1648.9 538.133 1633.43 529.6C1618.23 521.333 1600.76 507.067 1581.03 486.8C1554.63 485.467 1530.76 478.4 1509.43 465.6C1488.36 452.8 1471.83 435.867 1459.83 414.8C1448.1 393.467 1442.23 369.867 1442.23 344C1442.23 317.067 1448.63 292.667 1461.43 270.8C1474.5 248.933 1492.36 231.867 1515.03 219.6C1537.7 207.067 1563.16 200.8 1591.43 200.8C1619.43 200.8 1644.76 207.067 1667.43 219.6C1690.1 231.867 1707.83 248.933 1720.63 270.8C1733.43 292.4 1739.83 316.8 1739.83 344C1739.83 366.933 1735.16 388 1725.83 407.2C1716.76 426.4 1703.83 442.533 1687.03 455.6C1670.5 468.667 1651.43 477.733 1629.83 482.8C1639.16 492.667 1648.1 499.733 1656.63 504C1665.43 508.533 1674.36 510.8 1683.43 510.8C1703.16 510.8 1720.23 502.8 1734.63 486.8L1753.43 509.6ZM1482.23 344C1482.23 364.267 1486.9 382.667 1496.23 399.2C1505.83 415.467 1518.9 428.267 1535.43 437.6C1552.23 446.933 1570.9 451.6 1591.43 451.6C1611.7 451.6 1630.1 446.933 1646.63 437.6C1663.16 428.267 1676.1 415.467 1685.43 399.2C1695.03 382.667 1699.83 364.267 1699.83 344C1699.83 323.733 1695.03 305.467 1685.43 289.2C1676.1 272.667 1663.16 259.733 1646.63 250.4C1630.1 241.067 1611.7 236.4 1591.43 236.4C1570.9 236.4 1552.23 241.067 1535.43 250.4C1518.9 259.733 1505.83 272.667 1496.23 289.2C1486.9 305.467 1482.23 323.733 1482.23 344ZM1916.97 487.2C1879.64 487.2 1850.57 476.533 1829.77 455.2C1808.97 433.867 1798.57 403.2 1798.57 363.2V204H1838.57V361.6C1838.57 421.6 1864.84 451.6 1917.37 451.6C1942.97 451.6 1962.57 444.267 1976.17 429.6C1989.77 414.667 1996.57 392 1996.57 361.6V204H2035.37V363.2C2035.37 403.467 2024.97 434.267 2004.17 455.6C1983.37 476.667 1954.3 487.2 1916.97 487.2ZM2320.58 449.2V484H2117.38V204H2314.98V238.8H2157.38V324.8H2297.78V358.8H2157.38V449.2H2320.58Z" fill="black"/>
</svg>
